<svg width="17" height="17" viewBox="0 0 17 17" fill="none" xmlns="http://www.w3.org/2000/svg">
<path d="M8.49962 12.75C8.69821 12.75 8.86479 12.6828 8.99938 12.5485C9.13396 12.4142 9.20125 12.2477 9.20125 12.0491C9.20125 11.8505 9.13409 11.684 8.99976 11.5494C8.86542 11.4148 8.69896 11.3475 8.50038 11.3475C8.30179 11.3475 8.13521 11.4147 8.00062 11.549C7.86604 11.6833 7.79875 11.8498 7.79875 12.0484C7.79875 12.247 7.86591 12.4135 8.00024 12.5481C8.13459 12.6827 8.30104 12.75 8.49962 12.75ZM7.92625 9.49875H9.20125V4.1225H7.92625V9.49875ZM8.50565 17C7.33359 17 6.23213 16.7769 5.20128 16.3306C4.17043 15.8844 3.26896 15.2752 2.49688 14.5031C1.72479 13.731 1.11563 12.829 0.669375 11.7971C0.223125 10.7652 0 9.66264 0 8.48938C0 7.31611 0.223125 6.21352 0.669375 5.18162C1.11563 4.14971 1.72479 3.25125 2.49688 2.48625C3.26896 1.72125 4.17096 1.11563 5.20287 0.669375C6.23477 0.223125 7.33736 0 8.51062 0C9.68389 0 10.7865 0.223125 11.8184 0.669375C12.8503 1.11563 13.7487 1.72125 14.5138 2.48625C15.2788 3.25125 15.8844 4.15083 16.3306 5.185C16.7769 6.21917 17 7.32228 17 8.49435C17 9.66641 16.7769 10.7679 16.3306 11.7987C15.8844 12.8296 15.2788 13.7297 14.5138 14.4992C13.7487 15.2687 12.8492 15.8779 11.815 16.3267C10.7808 16.7756 9.67772 17 8.50565 17ZM8.51062 15.725C10.5152 15.725 12.2188 15.0202 13.6213 13.6106C15.0238 12.201 15.725 10.494 15.725 8.48938C15.725 6.48479 15.0251 4.78125 13.6252 3.37875C12.2254 1.97625 10.517 1.275 8.5 1.275C6.5025 1.275 4.79896 1.97492 3.38937 3.37476C1.97979 4.77461 1.275 6.48302 1.275 8.5C1.275 10.4975 1.97979 12.201 3.38937 13.6106C4.79896 15.0202 6.50604 15.725 8.51062 15.725Z" fill="white"/>
</svg>
