<svg width="213" height="34" viewBox="0 0 213 34" fill="none" xmlns="http://www.w3.org/2000/svg">
<path d="M36.2605 8.40534C36.2605 8.40534 20.749 13.5646 7.26074 6.47061C7.26074 6.47061 3.88867 5.82571 7.93515 9.05025C11.9816 12.2748 17.3769 15.4993 26.8187 15.4993C26.8187 15.4993 25.4699 18.079 17.3769 17.4341C9.28398 16.7892 5.2375 12.2748 3.88867 12.2748C2.53984 12.2748 -2.18105 12.2748 1.19102 13.5646C4.56308 14.8544 7.93515 18.079 11.9816 18.7239C16.0281 19.3688 24.7955 21.9484 34.9117 12.9197C34.9117 12.9197 35.5861 11.6299 34.2373 12.2748C32.8885 12.9197 23.4467 15.4993 18.7258 12.2748C18.7258 12.2748 31.5396 12.9197 36.9349 8.40534C36.9349 8.40534 37.6093 7.76043 36.2605 8.40534Z" fill="#333333"/>
<path d="M194.073 8.40534C194.073 8.40534 178.562 13.5646 165.073 6.47061C165.073 6.47061 161.701 5.82571 165.748 9.05025C169.794 12.2748 175.189 15.4993 184.631 15.4993C184.631 15.4993 183.282 18.079 175.189 17.4341C167.096 16.7892 163.05 12.2748 161.701 12.2748C160.352 12.2748 155.631 12.2748 159.004 13.5646C162.376 14.8544 165.748 18.079 169.794 18.7239C173.841 19.3688 182.608 21.9484 192.724 12.9197C192.724 12.9197 193.399 11.6299 192.05 12.2748C190.701 12.9197 181.259 15.4993 176.538 12.2748C176.538 12.2748 189.352 12.9197 194.747 8.40534C194.747 8.40534 195.422 7.76043 194.073 8.40534Z" fill="#333333"/>
<path d="M43.6992 10.6814C43.6992 10.6814 43.7734 11.0232 45.4122 10.6814C47.051 10.3396 48.3999 11.6294 48.3999 11.6294C48.3999 11.6294 49.0743 12.2744 51.0975 10.9845C53.1208 9.69471 53.1208 9.0498 54.4696 9.0498C55.8184 9.0498 53.7952 13.5642 53.7952 15.4989C53.7952 17.4336 53.1208 18.0785 52.4464 18.0785H51.7719C51.7719 18.0785 52.4464 13.5642 51.7719 13.5642C51.0975 13.5642 49.7487 12.9193 49.7487 16.7887C49.7487 16.7887 47.7255 17.4336 47.7255 16.1438C47.7255 14.854 47.8806 13.0547 46.1204 12.9902C46.1204 12.9902 45.7966 12.9193 45.075 13.8866C44.3534 14.854 43.706 10.6814 43.706 10.6814H43.6992Z" fill="#333333"/>
<path d="M81.4463 2.60096C81.4463 2.60096 81.4463 0.0213193 80.0975 0.0213193C78.7486 0.0213193 78.0742 -0.62359 78.0742 5.18059C78.0742 10.9848 79.423 11.6297 80.0975 16.789C80.0975 16.789 80.7719 19.3686 82.1207 16.789C83.4695 14.2093 82.7951 14.2093 84.1439 14.8542C85.4928 15.4991 85.4928 17.4339 87.516 17.4339C87.516 17.4339 88.1904 16.144 86.8416 14.8542C86.8416 14.8542 84.8184 13.5644 84.1439 12.9195C83.4695 12.2746 87.6846 8.45028 87.6846 8.45028C87.6846 8.45028 88.1904 6.47041 86.1672 7.11532C84.1439 7.76023 83.4695 11.6297 82.7951 11.6297C82.1207 11.6297 81.4463 12.2746 81.4463 9.69495V2.60096Z" fill="#333333"/>
<path d="M93.5854 14.8542C93.5854 14.8542 92.2366 13.5644 91.5622 12.2746C90.8878 10.9848 87.4752 10.3398 88.8443 13.5644C90.2134 16.7889 93.5854 17.4338 92.2366 18.7237C90.8878 20.0135 85.4925 25.1728 80.0971 21.3033C80.0971 21.3033 80.0971 20.6584 78.7483 20.6584C77.3995 20.6584 78.7483 23.8829 82.1204 24.5278C85.4925 25.1728 90.8878 22.5931 90.8878 22.5931C90.8878 22.5931 94.2598 21.3033 94.2598 18.7237C94.2598 16.144 95.6087 14.2093 95.6087 14.2093C95.6087 14.2093 96.9575 10.9848 97.6319 14.2093C98.3063 17.4338 97.6319 17.4338 99.6551 17.4338C101.678 17.4338 102.353 14.8542 103.027 15.4991C103.702 16.144 104.376 19.3686 106.399 19.3686C106.399 19.3686 108.423 20.0135 107.074 16.144C105.725 12.2746 105.05 10.9848 103.702 11.6297C102.353 12.2746 101.004 14.8542 100.33 14.8542C99.6551 14.8542 98.9807 10.3398 96.2831 10.3398C93.5854 10.3398 93.5854 14.8542 93.5854 14.8542Z" fill="#333333"/>
<path d="M109.097 10.9851C109.097 10.9851 107.748 10.9851 108.422 13.5647C109.097 16.1444 110.911 17.7953 111.356 17.9372C111.801 18.0791 113.143 17.4342 113.143 15.4995C113.143 13.5647 114.492 13.5647 114.492 13.5647C114.492 13.5647 114.492 16.7893 115.841 16.7893C117.19 16.7893 116.515 11.63 118.538 10.3402C118.538 10.3402 118.538 7.76055 115.841 10.9851C115.841 10.9851 113.197 11.1205 112.158 12.9908C112.158 12.9908 111.12 13.5647 110.445 12.2749C109.771 10.9851 109.771 10.9851 109.097 10.9851Z" fill="#333333"/>
<path d="M138.771 16.1444C138.771 16.1444 139.445 15.4995 138.097 14.8546C136.748 14.2097 127.98 14.8546 127.98 16.1444C127.98 17.4342 136.748 16.1444 138.771 16.1444Z" fill="#333333"/>
<path d="M122.875 9.36656C122.875 9.36656 119.888 7.41249 118.539 16.9378C118.539 16.9378 115.572 19.1047 116.381 19.5626C117.19 20.014 119.213 16.7895 121.237 16.7895C123.26 16.7895 123.732 17.8149 123.159 19.5626C122.585 21.3038 121.911 28.3978 117.865 29.6876C113.818 30.9775 109.772 31.6224 109.772 27.108C109.772 22.5936 111.795 21.9487 111.795 21.9487C111.795 21.9487 111.12 20.6589 109.097 23.2386C107.074 25.8182 105.725 28.3978 108.423 30.9775C111.12 33.5571 115.841 33.5571 117.865 31.6224C119.888 29.6876 124.069 25.4119 124.676 21.0975C125.283 16.783 127.886 14.1905 122.875 9.36011V9.36656ZM121.574 14.8547C121.014 14.8547 120.562 14.4226 120.562 13.8874C120.562 13.3521 121.014 12.92 121.574 12.92C122.134 12.92 122.585 13.3521 122.585 13.8874C122.585 14.4226 122.134 14.8547 121.574 14.8547Z" fill="#333333"/>
<path d="M200.143 9.69531C200.143 9.69531 194.747 9.69531 195.422 13.5648C196.096 17.4342 200.817 16.7893 202.166 14.8546C203.515 12.9199 202.84 11.63 200.143 9.69531ZM199.805 14.2097C199.246 14.2097 198.794 13.7776 198.794 13.2423C198.794 12.707 199.246 12.2749 199.805 12.2749C200.365 12.2749 200.817 12.707 200.817 13.2423C200.817 13.7776 200.365 14.2097 199.805 14.2097Z" fill="#333333"/>
<path d="M212.956 12.9193C212.282 9.04981 209.584 9.0498 209.584 9.0498C209.584 9.0498 204.863 9.69471 205.538 14.2091C206.212 18.7234 213.631 16.7887 212.956 12.9193ZM209.247 12.9193C208.876 12.9193 208.572 12.6291 208.572 12.2744C208.572 11.9197 208.876 11.6294 209.247 11.6294C209.618 11.6294 209.921 11.9197 209.921 12.2744C209.921 12.6291 209.618 12.9193 209.247 12.9193Z" fill="#333333"/>
<path d="M40.3066 9.69531C40.3066 9.69531 34.9113 10.3402 35.5857 14.2097C36.2601 18.0791 39.6322 18.0791 39.6322 18.0791C39.6322 18.0791 44.3531 18.0791 45.0275 14.2097C45.7019 10.3402 41.6554 9.69531 40.3066 9.69531ZM40.981 15.4995C38.9578 16.1444 38.2833 16.1444 38.3575 13.8872C38.4317 11.63 41.6554 12.2749 41.6554 12.2749C43.0042 12.2749 43.0042 14.8546 40.981 15.4995Z" fill="#333333"/>
</svg>
