<svg width="26" height="26" viewBox="0 0 26 26" fill="none" xmlns="http://www.w3.org/2000/svg">
<path d="M21.6337 22.0607H4.36585C4.1295 22.0607 3.93945 21.8706 3.93945 21.6343V10.1216C3.93945 9.97783 4.01011 9.84625 4.1295 9.76585L12.7622 4.01072C12.9059 3.9157 13.0911 3.9157 13.2349 4.01072L21.8676 9.76585C21.987 9.84382 22.0576 9.97783 22.0576 10.1216V21.6318C22.0576 21.8682 21.8676 22.0582 21.6312 22.0582L21.6337 22.0607ZM4.79224 21.2079H21.2073V10.3506L12.9985 4.87813L4.79224 10.3506V21.2079Z" fill="#333333"/>
<path d="M16.012 20.204C15.7757 20.204 15.5856 20.0139 15.5856 19.7776V16.978C15.5856 15.5502 14.4234 14.3904 12.998 14.3904C11.5726 14.3904 10.4104 15.5526 10.4104 16.978V19.7776C10.4104 20.0139 10.2204 20.204 9.98401 20.204C9.74767 20.204 9.55762 20.0139 9.55762 19.7776V16.978C9.55762 15.0799 11.1024 13.5376 12.998 13.5376C14.8937 13.5376 16.4384 15.0824 16.4384 16.978V19.7776C16.4384 20.0139 16.2484 20.204 16.012 20.204Z" fill="#333333"/>
</svg>
