<svg width="243" height="40" viewBox="0 0 243 40" fill="none" xmlns="http://www.w3.org/2000/svg">
<g clip-path="url(#clip0_935_747)">
<path d="M41.3707 10.0253C41.3707 10.0253 23.6745 16.1805 8.28643 7.71711C8.28643 7.71711 4.43942 6.9477 9.05583 10.7947C13.6722 14.6417 19.8274 18.4887 30.5991 18.4887C30.5991 18.4887 29.0603 21.5663 19.8274 20.7969C10.5946 20.0275 5.97823 14.6417 4.43942 14.6417C2.90062 14.6417 -2.48519 14.6417 1.36182 16.1805C5.20882 17.7193 9.05583 21.5663 13.6722 22.3357C18.2886 23.1051 28.2909 26.1827 39.8319 15.4111C39.8319 15.4111 40.6013 13.8723 39.0625 14.6417C37.5237 15.4111 26.7521 18.4887 21.3663 14.6417C21.3663 14.6417 35.9849 15.4111 42.1401 10.0253C42.1401 10.0253 42.9095 9.25591 41.3707 10.0253Z" fill="#333333"/>
<path d="M221.411 10.0253C221.411 10.0253 203.714 16.1805 188.326 7.71711C188.326 7.71711 184.479 6.9477 189.096 10.7947C193.712 14.6417 199.867 18.4887 210.639 18.4887C210.639 18.4887 209.1 21.5663 199.867 20.7969C190.635 20.0275 186.018 14.6417 184.479 14.6417C182.941 14.6417 177.555 14.6417 181.402 16.1805C185.249 17.7193 189.096 21.5663 193.712 22.3357C198.329 23.1051 208.331 26.1827 219.872 15.4111C219.872 15.4111 220.641 13.8723 219.102 14.6417C217.564 15.4111 206.792 18.4887 201.406 14.6417C201.406 14.6417 216.025 15.4111 222.18 10.0253C222.18 10.0253 222.949 9.25591 221.411 10.0253Z" fill="#333333"/>
<path d="M49.8572 12.7415C49.8572 12.7415 49.9418 13.1493 51.8115 12.7415C53.6811 12.3337 55.2199 13.8725 55.2199 13.8725C55.2199 13.8725 55.9893 14.6419 58.2975 13.1031C60.6057 11.5643 60.6057 10.7949 62.1445 10.7949C63.6833 10.7949 61.3751 16.1807 61.3751 18.4889C61.3751 20.7971 60.6057 21.5665 59.8363 21.5665H59.0669C59.0669 21.5665 59.8363 16.1807 59.0669 16.1807C58.2975 16.1807 56.7587 15.4113 56.7587 20.0277C56.7587 20.0277 54.4505 20.7971 54.4505 19.2583C54.4505 17.7195 54.6275 15.5729 52.6193 15.496C52.6193 15.496 52.25 15.4113 51.4268 16.5654C50.6035 17.7195 49.8649 12.7415 49.8649 12.7415H49.8572Z" fill="#333333"/>
<path d="M92.9206 3.10109C92.9206 3.10109 92.9206 0.0234817 91.3818 0.0234817C89.843 0.0234817 89.0736 -0.74592 89.0736 6.17869C89.0736 13.1033 90.6124 13.8727 91.3818 20.0279C91.3818 20.0279 92.1512 23.1055 93.69 20.0279C95.2288 16.9503 94.4594 16.9503 95.9982 17.7197C97.537 18.4891 97.537 20.7973 99.8452 20.7973C99.8452 20.7973 100.615 19.2585 99.0758 17.7197C99.0758 17.7197 96.7676 16.1809 95.9982 15.4115C95.2288 14.6421 100.038 10.0796 100.038 10.0796C100.038 10.0796 100.615 7.71749 98.3064 8.4869C95.9982 9.2563 95.2288 13.8727 94.4594 13.8727C93.69 13.8727 92.9206 14.6421 92.9206 11.5645V3.10109Z" fill="#333333"/>
<path d="M106.77 17.7198C106.77 17.7198 105.231 16.181 104.462 14.6422C103.692 13.1034 99.799 12.334 101.361 16.181C102.923 20.028 106.77 20.7974 105.231 22.3362C103.692 23.875 97.537 30.0302 91.3818 25.4138C91.3818 25.4138 91.3818 24.6444 89.843 24.6444C88.3042 24.6444 89.843 28.4914 93.69 29.2608C97.537 30.0302 103.692 26.9526 103.692 26.9526C103.692 26.9526 107.539 25.4138 107.539 22.3362C107.539 19.2586 109.078 16.9504 109.078 16.9504C109.078 16.9504 110.617 13.1034 111.386 16.9504C112.156 20.7974 111.386 20.7974 113.694 20.7974C116.003 20.7974 116.772 17.7198 117.541 18.4892C118.311 19.2586 119.08 23.1056 121.388 23.1056C121.388 23.1056 123.697 23.875 122.158 19.2586C120.619 14.6422 119.85 13.1034 118.311 13.8728C116.772 14.6422 115.233 17.7198 114.464 17.7198C113.694 17.7198 112.925 12.334 109.847 12.334C106.77 12.334 106.77 17.7198 106.77 17.7198Z" fill="#333333"/>
<path d="M124.466 13.1029C124.466 13.1029 122.927 13.1029 123.697 16.1805C124.466 19.2581 126.536 21.2277 127.044 21.397C127.551 21.5663 129.082 20.7969 129.082 18.4887C129.082 16.1805 130.621 16.1805 130.621 16.1805C130.621 16.1805 130.621 20.0275 132.16 20.0275C133.699 20.0275 132.929 13.8723 135.238 12.3335C135.238 12.3335 135.238 9.25585 132.16 13.1029C132.16 13.1029 129.144 13.2644 127.959 15.4957C127.959 15.4957 126.774 16.1805 126.005 14.6417C125.235 13.1029 125.235 13.1029 124.466 13.1029Z" fill="#333333"/>
<path d="M158.32 19.2586C158.32 19.2586 159.089 18.4892 157.55 17.7198C156.011 16.9504 146.009 17.7198 146.009 19.2586C146.009 20.7974 156.011 19.2586 158.32 19.2586Z" fill="#333333"/>
<path d="M140.185 11.1719C140.185 11.1719 136.776 8.84064 135.238 20.2047C135.238 20.2047 131.852 22.7899 132.776 23.3362C133.699 23.8747 136.007 20.0277 138.315 20.0277C140.623 20.0277 141.162 21.2511 140.508 23.3362C139.854 25.4135 139.085 33.877 134.468 35.4158C129.852 36.9546 125.235 37.724 125.235 32.3382C125.235 26.9523 127.544 26.1829 127.544 26.1829C127.544 26.1829 126.774 24.6441 124.466 27.7217C122.158 30.7994 120.619 33.877 123.697 36.9546C126.774 40.0322 132.16 40.0322 134.468 37.724C136.776 35.4158 141.547 30.3146 142.239 25.1673C142.932 20.02 145.902 16.927 140.185 11.1642V11.1719ZM138.7 17.7195C138.061 17.7195 137.546 17.204 137.546 16.5654C137.546 15.9268 138.061 15.4113 138.7 15.4113C139.339 15.4113 139.854 15.9268 139.854 16.5654C139.854 17.204 139.339 17.7195 138.7 17.7195Z" fill="#333333"/>
<path d="M228.335 11.5645C228.335 11.5645 222.18 11.5645 222.949 16.1809C223.719 20.7973 229.105 20.0279 230.643 17.7197C232.182 15.4115 231.413 13.8727 228.335 11.5645ZM227.95 16.9503C227.312 16.9503 226.796 16.4348 226.796 15.7962C226.796 15.1576 227.312 14.6421 227.95 14.6421C228.589 14.6421 229.105 15.1576 229.105 15.7962C229.105 16.4348 228.589 16.9503 227.95 16.9503Z" fill="#333333"/>
<path d="M242.954 15.4113C242.184 10.7949 239.107 10.7949 239.107 10.7949C239.107 10.7949 233.721 11.5643 234.49 16.9501C235.26 22.3359 243.723 20.0277 242.954 15.4113ZM238.722 15.4113C238.299 15.4113 237.953 15.0651 237.953 14.6419C237.953 14.2188 238.299 13.8725 238.722 13.8725C239.145 13.8725 239.492 14.2188 239.492 14.6419C239.492 15.0651 239.145 15.4113 238.722 15.4113Z" fill="#333333"/>
<path d="M45.9872 11.5645C45.9872 11.5645 39.8319 12.3339 40.6013 16.9503C41.3707 21.5667 45.2178 21.5667 45.2178 21.5667C45.2178 21.5667 50.6036 21.5667 51.373 16.9503C52.1424 12.3339 47.526 11.5645 45.9872 11.5645ZM46.7566 18.4891C44.4484 19.2585 43.679 19.2585 43.7636 16.5656C43.8482 13.8727 47.526 14.6421 47.526 14.6421C49.0648 14.6421 49.0648 17.7197 46.7566 18.4891Z" fill="#333333"/>
</g>
<defs>
<clipPath id="clip0_935_747">
<rect width="243" height="39.3703" fill="white"/>
</clipPath>
</defs>
</svg>
