<svg width="19" height="19" viewBox="0 0 19 19" fill="none" xmlns="http://www.w3.org/2000/svg">
<path d="M11.7378 4.77452C11.7378 4.64999 11.724 4.52777 11.7055 4.41016H7.44391C7.42315 4.52777 7.41162 4.64999 7.41162 4.77452V6.0175H11.7378V4.77452Z" fill="#333333"/>
<path d="M13.3289 4.41016C13.3405 4.53007 13.3474 4.6523 13.3474 4.77452V6.0175H14.5419V16.3903H4.60734V6.0175H5.80189V4.77452C5.80189 4.6523 5.80881 4.53007 5.82034 4.41016H3V17.9999H16.1493V4.41016H13.3289Z" fill="#333333"/>
<path d="M5.80151 6.01573V7.4455H7.40885V4.77275C7.40885 4.64822 7.42269 4.526 7.44114 4.40839C7.61409 3.3891 8.50194 2.60965 9.57196 2.60965C10.642 2.60965 11.5275 3.3891 11.7028 4.40839C11.7235 4.526 11.7351 4.64822 11.7351 4.77275V7.4455H13.3424V4.77275C13.3424 4.65053 13.3355 4.52831 13.324 4.40839C13.1441 2.49895 11.5298 1 9.57426 1C7.61871 1 6.00445 2.49895 5.81996 4.40839C5.80843 4.52831 5.80151 4.65053 5.80151 4.77275V6.01573Z" fill="#333333"/>
</svg>
