<svg width="243" height="40" viewBox="0 0 243 40" fill="none" xmlns="http://www.w3.org/2000/svg">
<g clip-path="url(#clip0_908_2640)">
<path d="M41.3708 10.0253C41.3708 10.0253 23.6746 16.1805 8.28655 7.71711C8.28655 7.71711 4.43955 6.9477 9.05595 10.7947C13.6724 14.6417 19.8276 18.4887 30.5992 18.4887C30.5992 18.4887 29.0604 21.5663 19.8276 20.7969C10.5948 20.0275 5.97835 14.6417 4.43954 14.6417C2.90074 14.6417 -2.48507 14.6417 1.36194 16.1805C5.20895 17.7193 9.05595 21.5663 13.6724 22.3357C18.2888 23.1051 28.291 26.1827 39.832 15.4111C39.832 15.4111 40.6014 13.8723 39.0626 14.6417C37.5238 15.4111 26.7522 18.4887 21.3664 14.6417C21.3664 14.6417 35.985 15.4111 42.1402 10.0253C42.1402 10.0253 42.9096 9.25591 41.3708 10.0253Z" fill="#C5CAD1"/>
<path d="M221.411 10.0253C221.411 10.0253 203.714 16.1805 188.326 7.71711C188.326 7.71711 184.479 6.9477 189.096 10.7947C193.712 14.6417 199.867 18.4887 210.639 18.4887C210.639 18.4887 209.1 21.5663 199.867 20.7969C190.635 20.0275 186.018 14.6417 184.479 14.6417C182.941 14.6417 177.555 14.6417 181.402 16.1805C185.249 17.7193 189.096 21.5663 193.712 22.3357C198.329 23.1051 208.331 26.1827 219.872 15.4111C219.872 15.4111 220.641 13.8723 219.102 14.6417C217.564 15.4111 206.792 18.4887 201.406 14.6417C201.406 14.6417 216.025 15.4111 222.18 10.0253C222.18 10.0253 222.949 9.25591 221.411 10.0253Z" fill="#C5CAD1"/>
<path d="M49.8572 12.7413C49.8572 12.7413 49.9418 13.149 51.8115 12.7413C53.6811 12.3335 55.2199 13.8723 55.2199 13.8723C55.2199 13.8723 55.9893 14.6417 58.2975 13.1029C60.6057 11.5641 60.6057 10.7947 62.1445 10.7947C63.6833 10.7947 61.3751 16.1805 61.3751 18.4887C61.3751 20.7969 60.6057 21.5663 59.8363 21.5663H59.0669C59.0669 21.5663 59.8363 16.1805 59.0669 16.1805C58.2975 16.1805 56.7587 15.4111 56.7587 20.0275C56.7587 20.0275 54.4505 20.7969 54.4505 19.2581C54.4505 17.7193 54.6275 15.5727 52.6193 15.4957C52.6193 15.4957 52.25 15.4111 51.4268 16.5652C50.6035 17.7193 49.8649 12.7413 49.8649 12.7413H49.8572Z" fill="#C5CAD1"/>
<path d="M92.9205 3.1006C92.9205 3.1006 92.9205 0.0229934 91.3817 0.0229934C89.8429 0.0229934 89.0735 -0.746409 89.0735 6.1782C89.0735 13.1028 90.6123 13.8722 91.3817 20.0274C91.3817 20.0274 92.1511 23.105 93.6899 20.0274C95.2287 16.9498 94.4593 16.9498 95.9981 17.7192C97.5369 18.4886 97.5369 20.7968 99.8451 20.7968C99.8451 20.7968 100.615 19.258 99.0757 17.7192C99.0757 17.7192 96.7675 16.1804 95.9981 15.411C95.2287 14.6416 100.037 10.0791 100.037 10.0791C100.037 10.0791 100.615 7.71701 98.3063 8.48641C95.9981 9.25581 95.2287 13.8722 94.4593 13.8722C93.6899 13.8722 92.9205 14.6416 92.9205 11.564V3.1006Z" fill="#C5CAD1"/>
<path d="M106.77 17.7193C106.77 17.7193 105.231 16.1805 104.462 14.6417C103.692 13.1029 99.7992 12.3335 101.361 16.1805C102.923 20.0275 106.77 20.7969 105.231 22.3357C103.692 23.8745 97.5371 30.0297 91.3819 25.4133C91.3819 25.4133 91.3819 24.6439 89.8431 24.6439C88.3043 24.6439 89.8431 28.4909 93.6901 29.2603C97.5371 30.0297 103.692 26.9521 103.692 26.9521C103.692 26.9521 107.539 25.4133 107.539 22.3357C107.539 19.2581 109.078 16.9499 109.078 16.9499C109.078 16.9499 110.617 13.1029 111.386 16.9499C112.156 20.7969 111.386 20.7969 113.695 20.7969C116.003 20.7969 116.772 17.7193 117.542 18.4887C118.311 19.2581 119.08 23.1051 121.389 23.1051C121.389 23.1051 123.697 23.8745 122.158 19.2581C120.619 14.6417 119.85 13.1029 118.311 13.8723C116.772 14.6417 115.233 17.7193 114.464 17.7193C113.695 17.7193 112.925 12.3335 109.848 12.3335C106.77 12.3335 106.77 17.7193 106.77 17.7193Z" fill="#C5CAD1"/>
<path d="M124.466 13.1029C124.466 13.1029 122.927 13.1029 123.697 16.1805C124.466 19.2581 126.536 21.2277 127.044 21.397C127.551 21.5663 129.082 20.7969 129.082 18.4887C129.082 16.1805 130.621 16.1805 130.621 16.1805C130.621 16.1805 130.621 20.0275 132.16 20.0275C133.699 20.0275 132.929 13.8723 135.238 12.3335C135.238 12.3335 135.238 9.25585 132.16 13.1029C132.16 13.1029 129.144 13.2644 127.959 15.4957C127.959 15.4957 126.774 16.1805 126.005 14.6417C125.235 13.1029 125.235 13.1029 124.466 13.1029Z" fill="#C5CAD1"/>
<path d="M158.32 19.2581C158.32 19.2581 159.089 18.4887 157.55 17.7193C156.011 16.9499 146.009 17.7193 146.009 19.2581C146.009 20.7969 156.011 19.2581 158.32 19.2581Z" fill="#C5CAD1"/>
<path d="M140.185 11.1717C140.185 11.1717 136.776 8.84039 135.238 20.2045C135.238 20.2045 131.852 22.7896 132.776 23.3359C133.699 23.8745 136.007 20.0275 138.315 20.0275C140.623 20.0275 141.162 21.2508 140.508 23.3359C139.854 25.4133 139.085 33.8767 134.468 35.4155C129.852 36.9543 125.235 37.7237 125.235 32.3379C125.235 26.9521 127.544 26.1827 127.544 26.1827C127.544 26.1827 126.774 24.6439 124.466 27.7215C122.158 30.7991 120.619 33.8767 123.697 36.9543C126.774 40.0319 132.16 40.0319 134.468 37.7237C136.776 35.4155 141.547 30.3144 142.239 25.1671C142.932 20.0198 145.902 16.9268 140.185 11.164V11.1717ZM138.7 17.7193C138.061 17.7193 137.546 17.2038 137.546 16.5652C137.546 15.9266 138.061 15.4111 138.7 15.4111C139.339 15.4111 139.854 15.9266 139.854 16.5652C139.854 17.2038 139.339 17.7193 138.7 17.7193Z" fill="#C5CAD1"/>
<path d="M228.335 11.5642C228.335 11.5642 222.18 11.5642 222.949 16.1806C223.719 20.797 229.105 20.0276 230.643 17.7194C232.182 15.4112 231.413 13.8724 228.335 11.5642ZM227.95 16.95C227.312 16.95 226.796 16.4345 226.796 15.7959C226.796 15.1573 227.312 14.6418 227.95 14.6418C228.589 14.6418 229.105 15.1573 229.105 15.7959C229.105 16.4345 228.589 16.95 227.95 16.95Z" fill="#C5CAD1"/>
<path d="M242.954 15.4111C242.185 10.7947 239.107 10.7947 239.107 10.7947C239.107 10.7947 233.721 11.5641 234.491 16.9499C235.26 22.3357 243.723 20.0275 242.954 15.4111ZM238.722 15.4111C238.299 15.4111 237.953 15.0649 237.953 14.6417C237.953 14.2185 238.299 13.8723 238.722 13.8723C239.145 13.8723 239.492 14.2185 239.492 14.6417C239.492 15.0649 239.145 15.4111 238.722 15.4111Z" fill="#C5CAD1"/>
<path d="M45.987 11.5642C45.987 11.5642 39.8318 12.3336 40.6012 16.95C41.3706 21.5664 45.2176 21.5664 45.2176 21.5664C45.2176 21.5664 50.6034 21.5664 51.3728 16.95C52.1422 12.3336 47.5258 11.5642 45.987 11.5642ZM46.7564 18.4888C44.4482 19.2582 43.6788 19.2582 43.7635 16.5653C43.8481 13.8724 47.5258 14.6418 47.5258 14.6418C49.0646 14.6418 49.0646 17.7194 46.7564 18.4888Z" fill="#C5CAD1"/>
</g>
<defs>
<clipPath id="clip0_908_2640">
<rect width="243" height="39.3703" fill="white"/>
</clipPath>
</defs>
</svg>
